# xmcd
#
# Track frame offsets:
#	150
#	16745
#	31265
#	45705
#	59472
#	77362
#	90937
#	104435
#	118757
#	127417
#	141805
#	157615
#	169652
#	178860
#	192835
#	207162
#	221650
#	236885
#
# Disc length: 3291 seconds
#
# Revision: 1
# Processed by: cddbd v1.5.2PL0 Copyright (c) Steve Scherf et al.
# Submitted via: EZCDAudioConverter 8.2.1.1
#
DISCID=f10cd912
DTITLE=Various Artist - Say It Loud! A Celebration Of Black Music In America 
DTITLE=[CD1]
DYEAR=2001
DGENRE=Soul, Funk, R&B, Delta Blues, Soul Jazz, Chicago Blues, Big Band
TTITLE0=Scott Joplin - Maple Leaf Rag
TTITLE1=Bessie Smith - The St. Louis Blues
TTITLE2=Jelly Roll Morton's Red Hot Peppers - Black Bottom Stomp
TTITLE3=Louis Armstrong and His Hot Five - Heebie Jeebies
TTITLE4=Paul Robeson - Ol' Man River
TTITLE5=Fats Waller - Ain't Misbehavin'
TTITLE6=Charlie Patton - Pony Blues
TTITLE7=Son House - My Black Mama (Part I)
TTITLE8=The Mills Brothers - Tiger Rag
TTITLE9=Cab Calloway and His Orchestra - Minnie The Moocher
TTITLE10=Duke Ellington and His World Famous Orchestra - It Don't Mean A Thing (
TTITLE10=If It Ain't Got That Swing)
TTITLE11=Robert Johnson - Cross Road Blues
TTITLE12=Golden Gate Jubilee Quartet - Rock My Soul
TTITLE13=The Ink Spots - If I Didn't Care
TTITLE14=Count Basie and His Orchestra - Jumpin' At The Woodside
TTITLE15=Billie Holiday - Strange Fruit
TTITLE16=Lena Horne - Stormy Weather
TTITLE17=Art Tatum - Tiger Rag
EXTD=
EXTT0=
EXTT1=
EXTT2=
EXTT3=
EXTT4=
EXTT5=
EXTT6=
EXTT7=
EXTT8=
EXTT9=
EXTT10=
EXTT11=
EXTT12=
EXTT13=
EXTT14=
EXTT15=
EXTT16=
EXTT17=
PLAYORDER=
